
        <svg xmlns="http://www.w3.org/2000/svg" xmlns:xlink="http://www.w3.org/1999/xlink" version="1.1" width="3162.1621621621625" height="972.972972972973" viewBox="0 0 3162.1621621621625 972.972972972973">
			
			<g transform="scale(8.108108108108109) translate(10, 10)">
				<defs id="SvgjsDefs7411"/><g id="SvgjsG7412" featureKey="hmhgWD-0" transform="matrix(1.4705882352941178,0,0,1.4705882352941178,0,0)" fill="#000"><path xmlns="http://www.w3.org/2000/svg" fill-rule="evenodd" d="M226,550 L226,550 L242,550 C243.104569,550 244,550.895431 244,552 L244,590 C244,591.104569 243.104569,592 242,592 L218,592 L218,602 C218,603.104569 217.104569,604 216,604 L178,604 C176.895431,604 176,603.104569 176,602 L176,564 C176,562.895431 176.895431,562 178,562 L184,562 L184,538 C184,536.895431 184.895431,536 186,536 L224,536 C225.104569,536 226,536.895431 226,538 L226,550 Z M222,540 L188,540 L188,562 L202,562 L202,552 C202,550.895431 202.895431,550 204,550 L222,550 L222,540 Z M180,600 L214,600 L214,566 L180,566 L180,600 Z M240,588 L240,554 L206,554 L206,562 L216,562 C217.104569,562 218,562.895431 218,564 L218,588 L240,588 Z" transform="translate(-176 -536)"/></g><g id="SvgjsG7413" featureKey="1RRcwp-0" transform="matrix(3.448276224941514,0,0,3.448276224941514,116.8965510686994,6.310822723475248)" fill="#000"><path d="M6 20.14 c-1.46 0 -2.74 -0.52 -3.58 -1.32 s-1.4 -1.82 -1.52 -2.92 l1.48 -0.28 c0.14 1.54 1.5 3.12 3.62 3.12 c1.32 0 3.48 -0.84 3.48 -3.14 c0 -0.84 -0.32 -1.52 -0.96 -2.04 c-0.62 -0.5 -1.46 -0.76 -2.5 -0.76 c-0.52 0 -0.98 0.08 -1.36 0.22 l-0.72 -1.22 l4.78 -4.98 l-7.48 0 l0 -1.4 l9.44 0 l0 1.34 l-4.52 4.64 c1.16 -0.04 2.22 0.24 3.14 0.9 c1.08 0.74 1.72 1.92 1.72 3.24 c0 0.9 -0.22 1.72 -0.68 2.42 c-0.46 0.72 -1.06 1.24 -1.82 1.62 s-1.6 0.56 -2.52 0.56 z M18.78 14.3 l-3.1 0 l0 5.7 l-1.54 0 l0 -14.58 l4.88 0 c3.56 -0.02 5.12 2.12 5.12 4.38 c0 1.26 -0.48 2.36 -1.34 3.18 c-0.88 0.82 -2.3 1.32 -4.02 1.32 z M18.900000000000002 6.859999999999999 l-3.22 0 l0 6.02 l3.14 0 c1.3 0 2.32 -0.38 2.9 -0.98 c0.58 -0.58 0.86 -1.3 0.86 -2.06 c0 -1.42 -0.82 -2.98 -3.68 -2.98 z M26.82 20 l0 -14.58 l1.54 0 l0 13.14 l6.92 0 l0 1.44 l-8.46 0 z M48.419999999999995 20 l-1.6 -3.72 l-7.94 0 l-1.6 3.72 l-1.56 0 l6.28 -14.58 l1.74 0 l6.3 14.58 l-1.62 0 z M46.239999999999995 14.879999999999999 l-3.4 -7.88 l-3.38 7.88 l6.78 0 z M56.89999999999999 6.859999999999999 l0 13.14 l-1.52 0 l0 -13.14 l-4.88 0 l0 -1.44 l11.28 0 l0 1.44 l-4.88 0 z M64.19999999999999 20 l0 -14.58 l9.12 0 l0 1.42 l-7.58 0 l0 5.04 l6.94 0 l0 1.42 l-6.94 0 l0 5.28 l7.66 0 l0 1.42 l-9.2 0 z"/></g>
			</g>
		</svg>
	