
        <svg xmlns="http://www.w3.org/2000/svg" xmlns:xlink="http://www.w3.org/1999/xlink" version="1.1" width="3171.4285714285716" 
        height="2017.089653779823" viewBox="0 0 3171.4285714285716 2017.089653779823">
			
			<g transform="scale(8.571428571428571) translate(10, 10)">
				<defs id="SvgjsDefs3803"><linearGradient id="SvgjsLinearGradient3808"><stop id="SvgjsStop3809" stop-color="#00ddff" offset="0"></stop><stop id="SvgjsStop3810" stop-color="#ff00d4" offset="1"></stop></linearGradient><linearGradient id="SvgjsLinearGradient3811"><stop id="SvgjsStop3812" stop-color="#00ddff" offset="0"></stop><stop id="SvgjsStop3813" stop-color="#ff00d4" offset="1"></stop></linearGradient></defs><g id="SvgjsG3804" featureKey="41S5F6-0" transform="matrix(2.690269437161924,0,0,2.690269437161924,40.98518374608979,22.149644857549404)" fill="url(#SvgjsLinearGradient3808)"><path xmlns="http://www.w3.org/2000/svg" d="M46.903,70.574c-2.196-1.686-5.353-1.269-7.039,0.927l0.396,0.305c1.517-1.978,4.361-2.353,6.337-0.835  c0.316,0.243,0.598,0.524,0.836,0.834l0.396-0.305C47.566,71.155,47.254,70.843,46.903,70.574z"></path><path xmlns="http://www.w3.org/2000/svg" d="M59.199,70.574c-2.195-1.688-5.354-1.269-7.038,0.927l0.396,0.305c0.735-0.958,1.799-1.572,2.996-1.729  c1.194-0.156,2.383,0.16,3.341,0.895c0.317,0.244,0.599,0.524,0.836,0.834l0.396-0.305C59.863,71.156,59.552,70.844,59.199,70.574z"></path><path xmlns="http://www.w3.org/2000/svg" d="M84.062,38.173c3.194,2.452,6.046,5.298,8.475,8.459l0.396-0.305c-2.455-3.195-5.337-6.072-8.566-8.551  c-10.139-7.779-22.495-10.71-34.263-9.163c-4.034-0.543-8.163-0.566-12.307-0.021c-12.277,1.616-23.19,7.917-30.729,17.741  l0.396,0.305c7.457-9.719,18.252-15.951,30.397-17.55c3.485-0.458,6.96-0.506,10.376-0.184c-3.335,0.576-6.607,1.52-9.757,2.813  c-0.09,0.011-0.179,0.017-0.269,0.029c-11.435,1.505-21.6,7.374-28.621,16.524l0.396,0.305c6.615-8.622,16.057-14.286,26.716-16.087  c-3.196,1.471-6.25,3.307-9.083,5.517c-5.924,2.618-11.293,6.71-15.506,12.201l0.396,0.305c3.688-4.807,8.328-8.617,13.589-11.257  c-2.441,2.079-4.706,4.436-6.735,7.081l0.396,0.305c2.421-3.156,5.177-5.908,8.177-8.247c3.039-1.332,6.264-2.281,9.616-2.819  c-2.968,1.411-5.766,3.153-8.34,5.213c-5.573,2.404-10.628,6.21-14.578,11.357l0.396,0.305c3.498-4.559,7.877-8.052,12.713-10.435  c-2.132,1.868-4.095,3.959-5.859,6.258l0.396,0.305c2.124-2.768,4.542-5.229,7.195-7.359c2.907-1.247,5.955-2.104,9.062-2.563  c-2.686,1.311-5.241,2.936-7.613,4.862c-5.269,2.182-10.054,5.723-13.768,10.562l0.396,0.305c3.292-4.29,7.439-7.542,12.017-9.718  c-1.859,1.654-3.594,3.497-5.164,5.542l0.396,0.305c1.905-2.482,4.055-4.666,6.381-6.562c2.669-1.099,5.461-1.85,8.305-2.227  c-2.44,1.232-4.755,2.755-6.904,4.545c-4.945,1.958-9.439,5.23-12.906,9.747l0.396,0.305c3.078-4.012,6.982-7.023,11.29-8.989  c-1.591,1.449-3.082,3.047-4.436,4.813l0.396,0.305c1.657-2.159,3.516-4.072,5.522-5.75c2.448-0.961,5.007-1.59,7.605-1.887  c-2.208,1.16-4.307,2.571-6.245,4.237c-4.605,1.731-8.797,4.72-12.006,8.902l0.396,0.305c2.856-3.722,6.506-6.482,10.531-8.232  c-1.313,1.232-2.547,2.581-3.678,4.055l0.396,0.305c1.395-1.818,2.943-3.45,4.612-4.894c2.24-0.835,4.578-1.367,6.948-1.584  c-1.952,1.076-3.801,2.376-5.508,3.895c-4.404,1.527-8.272,4.302-11.175,8.086l0.396,0.305c2.579-3.361,5.946-5.888,9.766-7.45  c-1.033,1.007-2.009,2.096-2.912,3.273l0.396,0.305c1.142-1.488,2.407-2.845,3.771-4.073c1.485-0.509,3.029-0.877,4.621-1.086  c0.527-0.069,1.053-0.114,1.579-0.149c-1.74,1.02-3.362,2.237-4.846,3.632c-3.938,1.249-7.549,3.659-10.249,7.179l0.396,0.305  c2.405-3.134,5.555-5.356,9.007-6.651c-0.759,0.778-1.481,1.6-2.153,2.475l0.396,0.305c0.881-1.148,1.839-2.201,2.859-3.165  c1.797-0.559,3.659-0.877,5.537-0.93c-1.49,0.94-2.876,2.047-4.139,3.307c-3.718,1.013-6.995,3.181-9.381,6.291l0.396,0.305  c2.141-2.792,5.019-4.81,8.291-5.879c-0.501,0.543-0.982,1.109-1.437,1.702l0.396,0.305c0.628-0.818,1.317-1.57,2.033-2.289  c0.702-0.184,1.413-0.34,2.144-0.436c0.897-0.118,1.79-0.146,2.678-0.126c-1.242,0.855-2.404,1.852-3.462,2.994  c-3.273,0.696-6.325,2.504-8.516,5.36l0.396,0.305c1.968-2.565,4.658-4.25,7.567-5.015c-0.238,0.279-0.488,0.544-0.713,0.838  l0.396,0.305c0.359-0.468,0.744-0.905,1.135-1.333c1.365-0.274,2.765-0.344,4.157-0.208c-1.003,0.786-1.924,1.682-2.752,2.686  c-2.933,0.355-5.727,1.836-7.663,4.359l0.396,0.305c1.766-2.301,4.279-3.69,6.941-4.109l0.309,0.238  c0.083-0.109,0.179-0.205,0.264-0.312c1.152-0.12,2.322-0.055,3.466,0.197c-0.57,0.534-1.113,1.107-1.604,1.746l0.396,0.305  c0.542-0.706,1.144-1.339,1.784-1.912c0.958,0.266,1.892,0.661,2.771,1.202c-0.755,0.537-1.445,1.183-2.068,1.918  c-3.435-1.695-7.713-0.794-10.134,2.36l0.396,0.305c2.246-2.927,6.196-3.788,9.402-2.271c-0.008,0.01-0.017,0.019-0.025,0.029  l0.396,0.305c0.025-0.033,0.055-0.062,0.08-0.094c0.323,0.18,0.641,0.377,0.943,0.609c0.418,0.32,0.788,0.691,1.13,1.086  c-0.008,0.011-0.018,0.02-0.026,0.031l0.166,0.127c0.049,0.06,0.107,0.114,0.154,0.176l0.037-0.029l0.04,0.03  c0.047-0.061,0.099-0.115,0.148-0.174l0.172-0.132c-0.009-0.012-0.021-0.023-0.031-0.035c0.594-0.69,1.291-1.262,2.07-1.696  c0.027,0.035,0.061,0.065,0.088,0.1l0.396-0.305c-0.008-0.011-0.018-0.02-0.027-0.03c0.714-0.337,1.482-0.569,2.287-0.675  c2.033-0.268,4.061,0.273,5.692,1.525c0.536,0.412,1.015,0.89,1.423,1.42l0.396-0.305c-0.435-0.565-0.944-1.073-1.515-1.512  c-1.738-1.333-3.892-1.909-6.062-1.624c-0.906,0.119-1.766,0.391-2.562,0.783c-0.521-0.613-1.091-1.187-1.736-1.682  c-0.107-0.082-0.22-0.149-0.329-0.227c0.866-0.531,1.793-0.932,2.757-1.202c0.654,0.584,1.271,1.205,1.802,1.896l0.396-0.305  c-0.483-0.629-1.035-1.202-1.618-1.746c1.143-0.253,2.322-0.314,3.492-0.193c0.083,0.103,0.172,0.202,0.253,0.307l0.319-0.245  c1.736,0.272,3.43,0.969,4.919,2.111c0.759,0.582,1.436,1.257,2.011,2.007l0.396-0.305c-0.602-0.784-1.309-1.49-2.103-2.099  c-1.67-1.282-3.587-2.015-5.539-2.252c-0.818-0.99-1.741-1.895-2.76-2.691c1.38-0.136,2.778-0.068,4.151,0.207  c0.393,0.43,0.775,0.869,1.129,1.33l0.396-0.305c-0.223-0.29-0.458-0.569-0.696-0.847c1.746,0.461,3.431,1.265,4.95,2.431  c0.979,0.752,1.854,1.625,2.599,2.594l0.396-0.305c-0.771-1.004-1.677-1.907-2.69-2.686c-1.776-1.363-3.771-2.235-5.827-2.67  c-0.797-0.857-1.661-1.658-2.597-2.376c-0.299-0.229-0.613-0.424-0.92-0.635c1.663-0.049,3.306,0.141,4.89,0.559  c0.724,0.724,1.4,1.492,2.023,2.302l0.396-0.305c-0.452-0.588-0.94-1.146-1.445-1.69c1.818,0.599,3.548,1.488,5.112,2.688  c1.202,0.923,2.273,1.992,3.186,3.18l0.396-0.305c-0.938-1.222-2.041-2.322-3.277-3.271c-1.861-1.428-3.943-2.451-6.139-3.049  c-0.719-0.71-1.48-1.378-2.286-1.997c-0.59-0.453-1.197-0.872-1.818-1.265c1.857,0.048,3.709,0.351,5.513,0.911  c1.044,0.983,2.016,2.035,2.885,3.167l0.396-0.305c-0.678-0.882-1.415-1.719-2.198-2.513c1.85,0.691,3.63,1.659,5.277,2.923  c1.423,1.092,2.692,2.359,3.773,3.767l0.396-0.305c-1.107-1.441-2.408-2.74-3.865-3.858c-1.98-1.519-4.153-2.604-6.405-3.317  c-0.647-0.604-1.313-1.187-2.018-1.729c-0.925-0.71-1.885-1.343-2.867-1.917c2.134,0.126,4.226,0.546,6.233,1.238  c1.393,1.244,2.67,2.606,3.801,4.079l0.396-0.305c-0.903-1.176-1.903-2.278-2.973-3.313c1.928,0.789,3.766,1.834,5.464,3.137  c1.646,1.262,3.112,2.727,4.361,4.353l0.396-0.305c-1.275-1.66-2.773-3.156-4.453-4.444c-2.068-1.587-4.339-2.802-6.73-3.639  c-0.548-0.487-1.111-0.959-1.694-1.407c-1.221-0.937-2.492-1.764-3.799-2.488c2.328,0.21,4.641,0.719,6.877,1.548  c1.726,1.484,3.299,3.131,4.677,4.926l0.396-0.305c-1.123-1.462-2.381-2.818-3.734-4.08c1.967,0.854,3.862,1.955,5.638,3.318  c1.865,1.432,3.529,3.094,4.948,4.94l0.396-0.305c-1.445-1.882-3.141-3.574-5.04-5.032c-2.179-1.672-4.555-2.985-7.056-3.923  c-0.448-0.383-0.9-0.763-1.369-1.122c-1.552-1.191-3.179-2.216-4.855-3.096c2.608,0.287,5.157,0.921,7.594,1.879  c2.079,1.728,3.968,3.662,5.603,5.79l0.396-0.305c-1.34-1.744-2.85-3.357-4.488-4.841c2.036,0.933,3.984,2.095,5.805,3.492  c2.089,1.603,3.951,3.462,5.536,5.526l0.396-0.305c-1.611-2.099-3.505-3.989-5.628-5.618c-2.295-1.761-4.766-3.135-7.332-4.15  c-0.363-0.301-0.718-0.609-1.093-0.896c-1.84-1.412-3.775-2.613-5.773-3.626c2.799,0.366,5.569,1.089,8.238,2.184  c2.411,1.955,4.592,4.162,6.465,6.602l0.396-0.305c-1.545-2.012-3.291-3.873-5.203-5.565c2.06,0.981,4.05,2.186,5.931,3.63  c2.308,1.771,4.368,3.827,6.124,6.113l0.396-0.305c-1.782-2.32-3.874-4.408-6.216-6.205c-2.398-1.84-4.969-3.3-7.639-4.402  c-0.263-0.213-0.516-0.437-0.785-0.644c-2.143-1.645-4.402-3.034-6.74-4.181c3.026,0.443,6.018,1.263,8.897,2.487  c2.754,2.183,5.236,4.675,7.361,7.44l0.396-0.305c-1.763-2.293-3.764-4.405-5.962-6.309c2.116,1.04,4.162,2.298,6.102,3.787  c2.528,1.941,4.787,4.195,6.712,6.699l0.396-0.305c-1.952-2.539-4.241-4.824-6.804-6.791c-2.498-1.917-5.167-3.462-7.938-4.646  c-0.165-0.13-0.32-0.271-0.487-0.399c-2.433-1.867-5.024-3.443-7.727-4.736c3.284,0.522,6.523,1.47,9.64,2.841  c3.078,2.401,5.838,5.162,8.193,8.227l0.396-0.305c-1.978-2.573-4.243-4.927-6.732-7.045c2.175,1.096,4.283,2.401,6.285,3.937  c2.752,2.111,5.207,4.562,7.3,7.286l0.396-0.305c-2.119-2.757-4.605-5.24-7.392-7.377c-2.58-1.98-5.33-3.586-8.181-4.846  c-0.083-0.065-0.16-0.136-0.244-0.2c-2.763-2.12-5.717-3.889-8.802-5.319c6.79,1.14,13.241,3.929,18.857,8.239  c2.972,2.28,5.625,4.928,7.888,7.872l0.396-0.305c-2.289-2.979-4.974-5.658-7.979-7.964c-6.172-4.735-13.34-7.65-20.859-8.59  c-3.078-1.279-6.276-2.217-9.551-2.8C63.095,27.905,74.562,30.885,84.062,38.173z M29.494,37.235c2.86-2.04,5.921-3.714,9.11-5.028  c3.25-0.403,6.49-0.432,9.672-0.106c-3.177,0.585-6.237,1.52-9.15,2.764C35.839,35.255,32.602,36.046,29.494,37.235z M59.124,34.689  c-3.027-0.222-6.065-0.097-9.054,0.362c-3.05-0.475-6.134-0.589-9.19-0.36c2.928-1.115,5.999-1.912,9.173-2.369  C53.158,32.774,56.197,33.563,59.124,34.689z M30.956,40.087c2.595-1.902,5.396-3.494,8.357-4.759  c3.095-0.359,6.178-0.363,9.201-0.009c-2.911,0.564-5.764,1.445-8.5,2.646C36.925,38.289,33.88,38.999,30.956,40.087z   M50.137,35.546c2.821,0.451,5.578,1.215,8.235,2.27c-2.792-0.165-5.59-0.006-8.339,0.456c-2.783-0.47-5.6-0.612-8.395-0.442  C44.383,36.751,47.236,35.992,50.137,35.546z M32.538,42.895c2.384-1.776,4.932-3.264,7.6-4.442  c2.785-0.287,5.603-0.255,8.397,0.104c-2.631,0.554-5.206,1.391-7.673,2.512C38.028,41.323,35.23,41.938,32.538,42.895z   M50.027,38.779c2.593,0.443,5.154,1.171,7.635,2.191c-2.566-0.112-5.134,0.063-7.653,0.529c-2.531-0.467-5.095-0.644-7.644-0.529  C44.839,39.96,47.408,39.226,50.027,38.779z M34.064,45.723c2.171-1.661,4.499-3.052,6.936-4.165  c2.539-0.22,5.105-0.145,7.644,0.222c-2.388,0.544-4.719,1.356-6.951,2.414C39.101,44.378,36.535,44.888,34.064,45.723z   M50.015,42.009c2.366,0.444,4.7,1.144,6.957,2.117c-2.328-0.06-4.654,0.146-6.931,0.611c-2.307-0.475-4.651-0.674-6.982-0.612  C45.301,43.165,47.634,42.456,50.015,42.009z M35.566,48.58c1.953-1.547,4.056-2.844,6.258-3.895c2.32-0.159,4.66-0.052,6.972,0.331  c-2.167,0.536-4.28,1.305-6.296,2.311C40.148,47.446,37.816,47.866,35.566,48.58z M50.008,45.239  c2.119,0.442,4.203,1.126,6.217,2.04c-1.208-0.001-2.424,0.07-3.642,0.231c-0.883,0.116-1.753,0.275-2.61,0.472  c-2.073-0.475-4.182-0.702-6.286-0.687C45.693,46.381,47.811,45.695,50.008,45.239z M40.702,50.662  c-1.225,0.161-2.423,0.414-3.588,0.751c1.694-1.398,3.528-2.603,5.479-3.59c2.095-0.1,4.204,0.045,6.284,0.44  c-1.937,0.531-3.793,1.27-5.545,2.201C42.457,50.483,41.58,50.547,40.702,50.662z M50.008,48.503  c1.891,0.444,3.751,1.091,5.54,1.961c-0.847,0.023-1.698,0.086-2.55,0.199c-1.011,0.133-2.001,0.334-2.973,0.587  c-1.804-0.478-3.664-0.742-5.549-0.787C46.251,49.607,48.106,48.949,50.008,48.503z M38.579,54.339  c1.524-1.325,3.176-2.447,4.915-3.376c1.881-0.032,3.741,0.158,5.55,0.564c-1.734,0.531-3.393,1.245-4.948,2.142  C42.234,53.649,40.38,53.872,38.579,54.339z M50.055,51.776c1.672,0.456,3.292,1.102,4.837,1.925  c-1.659,0.101-3.301,0.396-4.894,0.884c-1.586-0.486-3.207-0.801-4.838-0.901C46.706,52.872,48.343,52.23,50.055,51.776z   M41.532,56.968c-0.465,0.061-0.92,0.154-1.375,0.249c1.257-1.163,2.617-2.192,4.082-3.047c1.657,0.03,3.314,0.245,4.936,0.681  c-1.439,0.506-2.821,1.18-4.133,2.001C43.884,56.776,42.71,56.813,41.532,56.968z M49.991,55.106  c1.429,0.45,2.822,1.056,4.154,1.836c-0.106,0.012-0.211,0.012-0.317,0.026c-1.32,0.174-2.592,0.503-3.812,0.95  c-1.346-0.501-2.751-0.817-4.182-0.976C47.155,56.171,48.55,55.56,49.991,55.106z M41.669,60.178  c1.073-1.081,2.246-2.015,3.493-2.81c1.409,0.105,2.789,0.395,4.122,0.839c-1.234,0.516-2.409,1.154-3.493,1.935  C44.417,59.96,43.03,59.972,41.669,60.178z M50.017,58.455c1.205,0.463,2.355,1.078,3.446,1.814c-1.191,0.223-2.354,0.586-3.462,1.1  c-1.122-0.523-2.29-0.889-3.477-1.109C47.612,59.525,48.783,58.922,50.017,58.455z M43.187,63.211  c0.834-0.955,1.752-1.812,2.754-2.55c1.185,0.176,2.35,0.517,3.476,1.003c-0.983,0.511-1.92,1.124-2.779,1.865  C45.503,63.243,44.339,63.143,43.187,63.211z M50.471,65.925c0.585,0.449,1.104,0.968,1.583,1.52  c-0.772,0.444-1.464,1.021-2.063,1.704c-0.351-0.398-0.728-0.773-1.151-1.098c-0.295-0.226-0.603-0.42-0.917-0.6  c0.621-0.718,1.312-1.343,2.065-1.859C50.149,65.702,50.314,65.805,50.471,65.925z M49.999,64.993  c-0.88-0.566-1.813-0.992-2.775-1.29c0.867-0.712,1.804-1.306,2.79-1.782c0.83,0.405,1.632,0.897,2.392,1.481  c0.123,0.094,0.228,0.207,0.348,0.305C51.789,64.006,50.864,64.439,49.999,64.993z M54.343,60.879  c0.904,0.694,1.735,1.472,2.481,2.322c-1.177-0.069-2.356,0.054-3.496,0.344c-0.207-0.178-0.399-0.373-0.617-0.54  c-0.682-0.523-1.401-0.962-2.139-1.347c1.114-0.479,2.281-0.807,3.471-0.986C54.142,60.744,54.246,60.805,54.343,60.879z   M58.339,60.17c-1.39-0.21-2.799-0.217-4.181-0.026c-1.094-0.783-2.256-1.431-3.47-1.941c1.032-0.342,2.102-0.593,3.204-0.738  c0.326-0.043,0.651-0.056,0.977-0.08c0.477,0.307,0.951,0.621,1.409,0.972C57.008,58.915,57.695,59.523,58.339,60.17z   M58.214,55.833c0.567,0.435,1.105,0.903,1.629,1.386c-1.576-0.335-3.198-0.456-4.838-0.348c-1.322-0.835-2.708-1.505-4.134-2.012  c1.582-0.422,3.205-0.663,4.841-0.699C56.573,54.663,57.41,55.217,58.214,55.833z M61.357,54.3c-1.809-0.463-3.66-0.664-5.503-0.637  c-1.546-0.893-3.172-1.606-4.855-2.13c0.679-0.151,1.366-0.283,2.064-0.375c1.15-0.151,2.298-0.217,3.437-0.203  c1.259,0.676,2.481,1.456,3.651,2.354C60.564,53.627,60.964,53.96,61.357,54.3z M62.086,50.787c0.254,0.195,0.494,0.406,0.742,0.608  c-2.009-0.581-4.091-0.901-6.205-0.939c-1.773-0.941-3.618-1.669-5.503-2.187c2.051-0.391,4.145-0.542,6.236-0.45  C58.992,48.647,60.578,49.63,62.086,50.787z M64.021,48.264c0.109,0.084,0.21,0.176,0.318,0.261  c-2.225-0.702-4.536-1.108-6.885-1.217c-2.011-1.005-4.1-1.77-6.229-2.298c0.335-0.055,0.669-0.113,1.008-0.158  c1.977-0.261,3.95-0.325,5.897-0.2C60.176,45.631,62.152,46.83,64.021,48.264z M65.922,45.716c-2.481-0.839-5.037-1.347-7.605-1.527  c-2.241-1.068-4.566-1.865-6.931-2.405c2.518-0.365,5.076-0.441,7.622-0.224C61.413,42.664,63.735,44.042,65.922,45.716z   M67.402,42.861c-2.693-0.955-5.471-1.547-8.267-1.793c-2.466-1.126-5.017-1.968-7.611-2.517c2.76-0.354,5.56-0.392,8.341-0.109  C62.505,39.618,65.03,41.097,67.402,42.861z M68.886,40.008c-2.906-1.07-5.908-1.75-8.931-2.06c-2.688-1.182-5.466-2.05-8.286-2.608  c3-0.343,6.038-0.35,9.055-0.002C63.58,36.572,66.312,38.14,68.886,40.008z M70.433,37.202c-3.114-1.189-6.331-1.971-9.578-2.351  c-2.907-1.251-5.937-2.163-9.04-2.743c3.238-0.332,6.461-0.303,9.622,0.087C64.583,33.508,67.598,35.181,70.433,37.202z   M59.751,31.525c-3.047-0.25-6.141-0.187-9.244,0.221c-0.153,0.02-0.303,0.05-0.456,0.071c-3.171-0.456-6.407-0.568-9.664-0.303  c3.149-1.147,6.406-1.956,9.714-2.396C53.401,29.568,56.634,30.368,59.751,31.525z"></path></g><g id="SvgjsG3805" featureKey="RGwKHf-0" transform="matrix(5.128956210811871,0,0,5.128956210811871,-2.1541619998492902,-25.131888367790452)" fill="url(#SvgjsLinearGradient3811)"><path d="M8.02 15 c0 -1.5 -0.74 -2.32 -2.26 -2.32 c-0.42 0 -0.78 0.06 -1.08 0.18 c-0.56 0.26 -0.94 0.64 -1.12 1.24 c-0.1 0.28 -0.14 0.58 -0.14 0.9 s0.04 0.62 0.14 0.9 c0.16 0.58 0.58 1 1.12 1.22 c0.3 0.14 0.66 0.2 1.08 0.2 c1.52 0 2.26 -0.82 2.26 -2.32 z M8.02 11 l0 -5 l3 0 l0 9 c0 3.18 -2.26 5.1 -5.28 5.1 c-3.08 0 -5.32 -2 -5.32 -5.06 c0 -2.82 2.08 -5.14 4.92 -5.14 c1.06 0 1.98 0.3 2.68 1.1 z M12.92 10 l3 0 l0 10 l-3 0 l0 -10 z M14.42 9.06 c-1.02 0 -1.74 -0.72 -1.74 -1.74 c0 -1.04 0.72 -1.72 1.74 -1.72 c1.04 0 1.72 0.68 1.72 1.72 c0 1.06 -0.66 1.74 -1.72 1.74 z M23.42 10.34 l0 2.78 l-2.46 0 l0 6.88 l-3 0 l0 -9.98 c0 -3.32 2.44 -5.12 5.52 -5.12 c0.1 0 0.24 0 0.38 0.02 s0.3 0.06 0.44 0.08 l0 2.9 c-0.1 -0.02 -0.22 -0.04 -0.36 -0.06 s-0.26 -0.04 -0.36 -0.04 c-0.5 0 -0.9 0.06 -1.24 0.16 c-0.56 0.2 -1.06 0.58 -1.24 1.18 c-0.1 0.26 -0.14 0.56 -0.14 0.86 l0 0.34 l2.46 0 z M31.060000000000002 10.34 l0 2.78 l-2.46 0 l0 6.88 l-3 0 l0 -9.98 c0 -3.32 2.44 -5.12 5.52 -5.12 c0.1 0 0.24 0 0.38 0.02 s0.3 0.06 0.44 0.08 l0 2.9 c-0.1 -0.02 -0.22 -0.04 -0.36 -0.06 s-0.26 -0.04 -0.36 -0.04 c-0.5 0 -0.9 0.06 -1.24 0.16 c-0.56 0.2 -1.06 0.58 -1.24 1.18 c-0.1 0.26 -0.14 0.56 -0.14 0.86 l0 0.34 l2.46 0 z M36.24 15 l0 5 l-3 0 l0 -4.98 c0 -3.32 2.44 -5.12 5.52 -5.12 c0.1 0 0.24 0 0.38 0.02 s0.3 0.06 0.44 0.08 l0 2.9 c-0.1 -0.02 -0.22 -0.04 -0.36 -0.06 s-0.26 -0.04 -0.36 -0.04 c-0.5 0 -0.9 0.06 -1.24 0.16 c-0.56 0.2 -1.06 0.58 -1.24 1.18 c-0.1 0.26 -0.14 0.56 -0.14 0.86 z M47.900000000000006 15 c-0.08 -1.46 -0.74 -2.32 -2.26 -2.32 c-0.42 0 -0.78 0.06 -1.08 0.18 c-0.92 0.42 -1.26 1.2 -1.26 2.16 c0 0.32 0.04 0.62 0.14 0.88 c0.3 1.04 1.2 1.42 2.2 1.42 c1.52 0 2.26 -0.82 2.26 -2.32 z M51.7 20 l-3 0 c-0.2 -0.5 -0.38 -1 -0.5 -1.52 c-0.68 1.12 -1.72 1.62 -3 1.62 c-2.86 0 -4.9 -2.4 -4.9 -5.14 c0 -3.16 2.36 -5.06 5.34 -5.06 c3.18 0 5.18 2.04 5.26 5.1 c0.02 0.26 0.02 0.56 0.02 0.92 c0 1.4 0.22 2.8 0.78 4.08 z M60.760000000000005 16.7 l0 3 c-1.02 0.34 -2.08 0.44 -3.14 0.44 c-3.1 0 -5.3 -2.06 -5.3 -5.12 c0 -3.18 2.28 -5.12 5.3 -5.12 c1.06 0 2.12 0.1 3.14 0.44 l0 3 c-0.88 -0.46 -1.98 -0.58 -2.96 -0.58 c-0.66 0 -1.46 0.14 -1.92 0.66 c-0.42 0.42 -0.56 1.02 -0.56 1.58 c0 0.32 0.04 0.62 0.14 0.88 c0.08 0.28 0.22 0.52 0.42 0.72 c0.44 0.54 1.26 0.68 1.92 0.68 c0.88 0 2.18 -0.16 2.96 -0.58 z M68.08 10.34 l0 2.78 l-2.8 0 l0 1.88 c0 1.54 1.02 2.32 2.5 2.32 c0.18 0 0.34 -0.02 0.48 -0.04 s0.26 -0.04 0.4 -0.06 l0 2.78 c-0.18 0.02 -0.32 0.06 -0.42 0.08 c-0.12 0.02 -0.32 0.02 -0.58 0.02 c-3.02 0 -5.38 -2.06 -5.38 -5.1 l0 -7.4 l3 0 l0 2.74 l2.8 0 z"></path></g>
			</g>
		</svg>
	