
        <svg xmlns="http://www.w3.org/2000/svg" xmlns:xlink="http://www.w3.org/1999/xlink" version="1.1" width="3161.955880984145" 
        height="726.058175679154" viewBox="0 0 3161.955880984145 726.058175679154">
			
			<g transform="scale(8.097794049207284) translate(10, 10)">
				<defs id="SvgjsDefs26016"><linearGradient id="SvgjsLinearGradient26021"><stop id="SvgjsStop26022" stop-color="#00ddff" offset="0"></stop><stop id="SvgjsStop26023" stop-color="#ff00d4" offset="1"></stop></linearGradient><linearGradient id="SvgjsLinearGradient26024"><stop id="SvgjsStop26025" stop-color="#00ddff" offset="0"></stop><stop id="SvgjsStop26026" stop-color="#ff00d4" offset="1"></stop></linearGradient></defs><g id="SvgjsG26017" featureKey="v37d4h-0" transform="matrix(-1.058681259655166,0,0,1.058681259655166,99.19842776993886,-18.10344994395819)" fill="url(#SvgjsLinearGradient26021)"><path xmlns="http://www.w3.org/2000/svg" d="M60.8,17.1c-3.783,0-7.415,0.65-10.8,1.83c-3.385-1.18-7.017-1.83-10.8-1.83C21.059,17.1,6.3,31.859,6.3,50  c0,18.142,14.759,32.9,32.9,32.9c3.783,0,7.414-0.65,10.8-1.83c3.385,1.18,7.017,1.83,10.8,1.83c18.142,0,32.9-14.759,32.9-32.9  C93.7,31.859,78.941,17.1,60.8,17.1z M39.2,81.9C21.61,81.9,7.3,67.59,7.3,50S21.61,18.1,39.2,18.1c3.238,0,6.364,0.489,9.311,1.39  c-2.136,0.863-4.165,1.938-6.052,3.21c-1.07-0.127-2.156-0.2-3.259-0.2c-15.164,0-27.5,12.336-27.5,27.5  c0,15.163,12.336,27.5,27.5,27.5c1.103,0,2.189-0.073,3.259-0.2c1.887,1.272,3.916,2.347,6.053,3.21  C45.564,81.412,42.439,81.9,39.2,81.9z M49.258,37.959c-1.061,1.018-1.982,2.175-2.746,3.441c-1.115-0.949-2.413-1.686-3.837-2.148  c0.785-1.319,1.707-2.545,2.751-3.659C46.82,36.198,48.108,36.997,49.258,37.959z M52.741,42.093  c-1.25,1.273-2.203,2.838-2.741,4.585c-0.538-1.747-1.491-3.312-2.741-4.585c0.75-1.28,1.672-2.443,2.741-3.459  C51.069,39.65,51.991,40.813,52.741,42.093z M60.3,50c0,1.645-0.208,3.239-0.566,4.776C57.545,54.287,55.9,52.335,55.9,50  c0-2.335,1.645-4.286,3.834-4.775C60.092,46.762,60.3,48.356,60.3,50z M60.747,45.105c0.018,0,0.035-0.005,0.053-0.005  c2.702,0,4.9,2.198,4.9,4.9c0,2.702-2.198,4.9-4.9,4.9c-0.018,0-0.035-0.005-0.053-0.005C61.104,53.319,61.3,51.682,61.3,50  C61.3,48.318,61.105,46.681,60.747,45.105z M59.484,55.747c-0.408,1.439-0.955,2.818-1.644,4.115  c-1.44-0.433-2.742-1.177-3.842-2.148c0.786-1.502,1.342-3.137,1.641-4.862C56.44,54.297,57.831,55.369,59.484,55.747z   M60.498,55.885c0.101,0.005,0.2,0.015,0.302,0.015c1.887,0,3.565-0.893,4.646-2.276c-0.298,2.171-0.86,4.257-1.653,6.228  C62.845,60.142,61.841,60.3,60.8,60.3c-0.67,0-1.323-0.069-1.957-0.192C59.532,58.773,60.09,57.36,60.498,55.885z M66.7,50  c0-3.288-0.582-6.443-1.645-9.369C68.615,42.255,71.1,45.839,71.1,50c0,4.161-2.485,7.745-6.045,9.369  C66.118,56.443,66.7,53.288,66.7,50z M65.446,46.376C64.365,44.994,62.687,44.1,60.8,44.1c-0.102,0-0.201,0.01-0.302,0.015  c-0.408-1.475-0.966-2.888-1.655-4.223C59.477,39.769,60.13,39.7,60.8,39.7c1.041,0,2.045,0.158,2.993,0.447  C64.586,42.118,65.148,44.205,65.446,46.376z M59.484,44.253c-1.653,0.379-3.044,1.45-3.845,2.895  c-0.299-1.725-0.855-3.361-1.641-4.862c1.1-0.971,2.403-1.715,3.842-2.148C58.529,41.435,59.076,42.815,59.484,44.253z M54.9,50  c0,2.508-0.606,4.872-1.656,6.977C51.547,55.14,50.5,52.693,50.5,50c0-2.693,1.047-5.139,2.744-6.976  C54.294,45.128,54.9,47.492,54.9,50z M50,61.366c-1.069-1.016-1.991-2.18-2.741-3.459c1.25-1.273,2.203-2.838,2.741-4.585  c0.538,1.747,1.492,3.312,2.741,4.585C51.991,59.187,51.069,60.35,50,61.366z M39.7,50c0-1.645,0.208-3.238,0.566-4.775  C42.455,45.714,44.1,47.665,44.1,50c0,2.335-1.645,4.287-3.834,4.776C39.908,53.239,39.7,51.645,39.7,50z M39.253,54.895  c-0.018,0-0.035,0.005-0.053,0.005c-2.702,0-4.9-2.198-4.9-4.9c0-2.702,2.198-4.9,4.9-4.9c0.018,0,0.035,0.005,0.053,0.005  C38.895,46.681,38.7,48.318,38.7,50C38.7,51.682,38.896,53.319,39.253,54.895z M40.516,44.253c0.408-1.439,0.955-2.818,1.644-4.115  c1.44,0.433,2.743,1.177,3.843,2.148c-0.786,1.502-1.342,3.137-1.641,4.862C43.56,45.703,42.17,44.632,40.516,44.253z   M39.502,44.115c-0.101-0.005-0.2-0.015-0.302-0.015c-1.887,0-3.565,0.894-4.646,2.276c0.298-2.171,0.86-4.258,1.653-6.229  c0.948-0.289,1.952-0.447,2.993-0.447c0.67,0,1.323,0.069,1.957,0.192C40.467,41.227,39.91,42.64,39.502,44.115z M33.3,50  c0,3.288,0.582,6.443,1.645,9.369C31.385,57.745,28.9,54.161,28.9,50c0-4.161,2.485-7.745,6.045-9.369  C33.882,43.557,33.3,46.712,33.3,50z M34.554,53.624c1.081,1.383,2.759,2.276,4.646,2.276c0.102,0,0.201-0.01,0.302-0.015  c0.408,1.475,0.966,2.888,1.655,4.223C40.523,60.231,39.87,60.3,39.2,60.3c-1.041,0-2.045-0.158-2.993-0.447  C35.414,57.882,34.852,55.795,34.554,53.624z M40.516,55.747c1.653-0.379,3.044-1.45,3.846-2.896  c0.299,1.725,0.855,3.36,1.641,4.862c-1.1,0.971-2.403,1.715-3.843,2.148C41.471,58.565,40.925,57.186,40.516,55.747z M45.1,50  c0-2.508,0.606-4.871,1.656-6.976C48.453,44.861,49.5,47.308,49.5,50c0,2.693-1.047,5.139-2.744,6.976  C45.706,54.871,45.1,52.508,45.1,50z M41.658,38.977C40.865,38.801,40.045,38.7,39.2,38.7c-0.858,0-1.69,0.105-2.494,0.287  c0.76-1.656,1.682-3.222,2.752-4.674c1.731,0.028,3.389,0.343,4.942,0.891C43.358,36.357,42.44,37.623,41.658,38.977z   M35.445,39.355c-2.564,0.908-4.704,2.709-6.041,5.036c0.527-2.96,1.458-5.78,2.744-8.399c1.843-0.932,3.89-1.505,6.058-1.642  C37.122,35.91,36.191,37.584,35.445,39.355z M27.9,50c0,4.674,0.986,9.12,2.751,13.151C26.353,60.347,23.5,55.504,23.5,50  c0-5.504,2.853-10.347,7.151-13.151C28.886,40.88,27.9,45.326,27.9,50z M29.404,55.608c1.338,2.327,3.477,4.129,6.041,5.037  c0.746,1.771,1.677,3.445,2.761,5.005c-2.168-0.137-4.215-0.711-6.058-1.642C30.862,61.389,29.931,58.568,29.404,55.608z   M36.706,61.013C37.51,61.195,38.342,61.3,39.2,61.3c0.845,0,1.665-0.101,2.458-0.277c0.783,1.354,1.701,2.62,2.743,3.774  c-1.552,0.547-3.211,0.862-4.942,0.891C38.388,64.235,37.466,62.669,36.706,61.013z M42.675,60.747  c1.424-0.461,2.722-1.198,3.836-2.147c0.765,1.265,1.685,2.423,2.746,3.441c-1.15,0.962-2.438,1.761-3.832,2.365  C44.382,63.292,43.461,62.067,42.675,60.747z M50,62.716c1.155,0.983,2.447,1.803,3.84,2.445c-1.159,1.12-2.45,2.099-3.84,2.932  c-1.39-0.833-2.68-1.812-3.84-2.932C47.553,64.519,48.845,63.698,50,62.716z M50.742,62.041c1.061-1.018,1.982-2.175,2.747-3.441  c1.115,0.949,2.413,1.686,3.836,2.147c-0.785,1.319-1.707,2.545-2.751,3.659C53.18,63.802,51.892,63.003,50.742,62.041z   M58.342,61.023c0.792,0.177,1.613,0.277,2.458,0.277c0.858,0,1.69-0.105,2.494-0.287c-0.76,1.656-1.682,3.222-2.752,4.674  c-1.731-0.028-3.389-0.343-4.942-0.891C56.641,63.643,57.559,62.377,58.342,61.023z M64.555,60.645  c2.564-0.908,4.703-2.71,6.041-5.036c-0.527,2.96-1.458,5.781-2.744,8.4c-1.843,0.932-3.89,1.505-6.058,1.642  C62.878,64.09,63.809,62.416,64.555,60.645z M72.1,50c0-4.674-0.986-9.121-2.751-13.151C73.647,39.653,76.5,44.496,76.5,50  c0,5.504-2.853,10.347-7.151,13.151C71.114,59.12,72.1,54.674,72.1,50z M70.596,44.391c-1.338-2.327-3.477-4.129-6.041-5.036  c-0.746-1.771-1.677-3.445-2.761-5.005c2.168,0.137,4.215,0.71,6.057,1.642C69.137,38.611,70.068,41.432,70.596,44.391z   M63.294,38.987C62.49,38.805,61.658,38.7,60.8,38.7c-0.845,0-1.665,0.101-2.457,0.277c-0.783-1.354-1.701-2.62-2.743-3.774  c1.552-0.547,3.211-0.862,4.942-0.891C61.612,35.765,62.534,37.331,63.294,38.987z M57.325,39.253  c-1.423,0.461-2.722,1.198-3.836,2.147c-0.765-1.265-1.685-2.423-2.746-3.441c1.15-0.962,2.438-1.761,3.831-2.365  C55.618,36.708,56.539,37.933,57.325,39.253z M50,37.285c-1.155-0.983-2.447-1.804-3.84-2.446c1.159-1.12,2.45-2.099,3.84-2.932  c1.39,0.833,2.681,1.812,3.84,2.932C52.447,35.481,51.155,36.302,50,37.285z M45.148,34.414c-1.552-0.594-3.212-0.96-4.945-1.063  c1.147-1.416,2.434-2.713,3.844-3.866c1.742,0.412,3.404,1.03,4.95,1.845C47.602,32.215,46.309,33.248,45.148,34.414z   M38.963,33.312c-2.138,0.03-4.18,0.463-6.053,1.228c1.095-1.967,2.393-3.804,3.864-5.489c0.798-0.092,1.605-0.151,2.427-0.151  c1.231,0,2.431,0.128,3.605,0.331C41.391,30.458,40.102,31.824,38.963,33.312z M31.411,35.239C26.118,38.044,22.5,43.604,22.5,50  c0,6.396,3.618,11.956,8.911,14.761c1.073,2.127,2.366,4.124,3.856,5.957C25.507,68.869,18.1,60.289,18.1,50  c0-10.29,7.408-18.869,17.167-20.719C33.777,31.114,32.484,33.112,31.411,35.239z M32.91,65.461  c1.874,0.765,3.915,1.197,6.053,1.228c1.14,1.488,2.428,2.854,3.842,4.08C41.631,70.972,40.431,71.1,39.2,71.1  c-0.822,0-1.63-0.059-2.427-0.151C35.302,69.264,34.004,67.427,32.91,65.461z M40.203,66.649c1.733-0.104,3.393-0.469,4.945-1.063  c1.161,1.166,2.454,2.199,3.85,3.084c-1.547,0.815-3.208,1.433-4.951,1.845C42.637,69.362,41.35,68.065,40.203,66.649z M50,69.27  c1.542,0.868,3.197,1.555,4.939,2.034C53.41,72.437,51.754,73.404,50,74.19c-1.754-0.786-3.41-1.754-4.939-2.886  C46.803,70.825,48.458,70.138,50,69.27z M51.002,68.67c1.396-0.885,2.689-1.919,3.85-3.085c1.552,0.595,3.212,0.96,4.945,1.063  c-1.147,1.416-2.434,2.713-3.844,3.866C54.21,70.104,52.548,69.485,51.002,68.67z M61.037,66.688  c2.138-0.03,4.179-0.462,6.053-1.227c-1.095,1.967-2.393,3.804-3.863,5.488C62.429,71.041,61.622,71.1,60.8,71.1  c-1.231,0-2.431-0.128-3.605-0.331C58.609,69.542,59.897,68.176,61.037,66.688z M68.589,64.761C73.882,61.957,77.5,56.396,77.5,50  c0-6.396-3.618-11.957-8.911-14.761c-1.073-2.128-2.366-4.125-3.857-5.958C74.492,31.13,81.9,39.71,81.9,50  c0,10.29-7.408,18.869-17.168,20.718C66.223,68.885,67.516,66.889,68.589,64.761z M67.09,34.539  c-1.873-0.765-3.914-1.197-6.053-1.227c-1.14-1.488-2.429-2.854-3.843-4.081c1.174-0.203,2.374-0.331,3.605-0.331  c0.822,0,1.629,0.059,2.426,0.151C64.697,30.735,65.995,32.572,67.09,34.539z M59.797,33.351c-1.733,0.104-3.393,0.469-4.945,1.063  c-1.161-1.166-2.454-2.199-3.85-3.085c1.547-0.815,3.208-1.433,4.95-1.845C57.362,30.638,58.65,31.935,59.797,33.351z M50,30.729  c-1.542-0.868-3.197-1.555-4.938-2.034c1.528-1.132,3.184-2.099,4.938-2.885c1.754,0.786,3.41,1.753,4.938,2.885  C53.197,29.175,51.542,29.862,50,30.729z M43.823,28.39c-1.492-0.319-3.037-0.49-4.623-0.49c-0.477,0-0.95,0.021-1.42,0.051  c1.498-1.563,3.15-2.976,4.936-4.21c2.098,0.28,4.118,0.804,6.033,1.547C46.993,26.147,45.345,27.191,43.823,28.39z M36.276,28.099  C25.468,29.535,17.1,38.806,17.1,50c0,11.193,8.367,20.464,19.175,21.9c1.489,1.665,3.142,3.181,4.937,4.516  c-0.665,0.05-1.334,0.084-2.012,0.084c-14.612,0-26.5-11.888-26.5-26.5s11.888-26.5,26.5-26.5c0.678,0,1.347,0.034,2.013,0.084  C39.417,24.919,37.764,26.434,36.276,28.099z M37.779,72.049c0.47,0.03,0.943,0.051,1.421,0.051c1.585,0,3.131-0.171,4.622-0.49  c1.522,1.199,3.171,2.243,4.927,3.103c-1.914,0.742-3.935,1.267-6.033,1.547C40.93,75.025,39.277,73.612,37.779,72.049z M50,75.287  c1.911,0.819,3.933,1.422,6.036,1.791c-1.89,1.18-3.91,2.169-6.036,2.936c-2.126-0.767-4.146-1.757-6.036-2.936  C46.067,76.709,48.089,76.107,50,75.287z M51.251,74.713c1.756-0.86,3.404-1.905,4.927-3.103c1.492,0.319,3.037,0.49,4.622,0.49  c0.478,0,0.95-0.021,1.42-0.051c-1.498,1.563-3.15,2.976-4.937,4.211C55.185,75.98,53.165,75.455,51.251,74.713z M63.725,71.9  C74.533,70.464,82.9,61.194,82.9,50c0-11.194-8.368-20.465-19.177-21.901c-1.489-1.665-3.141-3.18-4.937-4.515  c0.665-0.05,1.335-0.084,2.013-0.084c14.612,0,26.5,11.888,26.5,26.5S75.412,76.5,60.8,76.5c-0.678,0-1.347-0.034-2.012-0.084  C60.583,75.081,62.236,73.566,63.725,71.9z M62.22,27.95c-0.47-0.03-0.942-0.05-1.42-0.05c-1.585,0-3.131,0.171-4.623,0.49  c-1.522-1.199-3.17-2.243-4.926-3.103c1.914-0.742,3.935-1.267,6.033-1.547C59.07,24.974,60.722,26.387,62.22,27.95z M50,24.712  c-1.91-0.819-3.933-1.422-6.036-1.791c1.89-1.179,3.91-2.169,6.036-2.936c2.126,0.767,4.145,1.757,6.036,2.936  C53.933,23.291,51.91,23.893,50,24.712z M60.8,81.9c-3.238,0-6.364-0.489-9.311-1.39c2.136-0.864,4.165-1.938,6.052-3.21  c1.07,0.127,2.156,0.2,3.259,0.2c15.163,0,27.5-12.337,27.5-27.5c0-15.164-12.337-27.5-27.5-27.5c-1.104,0-2.19,0.073-3.26,0.2  c-1.887-1.272-3.916-2.346-6.052-3.21c2.947-0.901,6.073-1.39,9.311-1.39c17.59,0,31.9,14.31,31.9,31.9S78.39,81.9,60.8,81.9z"></path></g><g id="SvgjsG26018" featureKey="UxBHKT-0" transform="matrix(3.304302751773295,0,0,3.304302751773295,110.15829978315833,-6.265878335045183)" fill="url(#SvgjsLinearGradient26024)"><path d="M9.72 18.9 q-0.38 0.52 -1.31 0.93 t-2.03 0.41 q-1.7 0 -2.95 -0.76 t-1.91 -2.07 t-0.66 -2.91 t0.66 -2.91 t1.91 -2.07 t2.95 -0.76 q1.14 0 2.01 0.39 t1.33 0.99 l0 -5.26 l2.96 0 l0 15.12 l-2.96 0 l0 -1.1 z M9.02 12.25 q-0.82 -0.87 -2.2 -0.87 q-1.4 0 -2.21 0.87 t-0.81 2.25 q0 1.34 0.83 2.22 t2.19 0.88 q1.4 0 2.21 -0.83 t0.81 -2.27 q0 -1.38 -0.82 -2.25 z M18.439999999999998 7.369999999999999 q-0.48 0.47 -1.16 0.47 q-0.7 0 -1.19 -0.47 t-0.49 -1.15 q0 -0.66 0.49 -1.13 t1.19 -0.47 q0.68 0 1.16 0.47 t0.48 1.13 q0 0.68 -0.48 1.15 z M15.78 9.02 l3 0 l0 10.98 l-3 0 l0 -10.98 z M25.24 20 l-3 0 l0 -8.26 l-1.24 0 l0 -2.56 l1.24 0 q0.08 -2.14 1.22 -3.26 t3.16 -1.12 q0.6 0 1.32 0.18 l-0.16 2.42 q-0.38 -0.12 -0.82 -0.12 q-1.08 0 -1.4 0.54 t-0.32 1.36 l1.98 0 l0 2.56 l-1.98 0 l0 8.26 z M33.04 20 l-3 0 l0 -8.26 l-1.24 0 l0 -2.56 l1.24 0 q0.08 -2.14 1.22 -3.26 t3.16 -1.12 q0.6 0 1.32 0.18 l-0.16 2.42 q-0.38 -0.12 -0.82 -0.12 q-1.08 0 -1.4 0.54 t-0.32 1.36 l1.98 0 l0 2.56 l-1.98 0 l0 8.26 z M42.58 11.87 q-0.86 0.21 -1.58 0.99 t-0.72 2.28 l0 4.86 l-2.98 0 l0 -11 l2.98 0 l0 1.46 q0.74 -0.98 1.81 -1.33 t1.95 -0.33 l0 2.92 q-0.6 -0.06 -1.46 0.15 z M53.959999999999994 18.9 q-0.38 0.52 -1.31 0.93 t-2.03 0.41 q-1.7 0 -2.95 -0.76 t-1.91 -2.07 t-0.66 -2.91 t0.66 -2.91 t1.91 -2.07 t2.95 -0.76 q1.14 0 2.01 0.39 t1.33 0.99 l0 -1.14 l2.96 0 l0 11 l-2.96 0 l0 -1.1 z M53.25999999999999 12.25 q-0.82 -0.87 -2.2 -0.87 q-1.4 0 -2.21 0.87 t-0.81 2.25 q0 1.34 0.83 2.22 t2.19 0.88 q1.4 0 2.21 -0.83 t0.81 -2.27 q0 -1.38 -0.82 -2.25 z M62.35999999999999 19.51 q-1.38 -0.77 -2.19 -2.09 t-0.81 -2.88 t0.81 -2.87 t2.18 -2.08 t2.99 -0.77 q1.74 0 3.15 0.83 t2.25 2.37 l-2.7 1.06 q-0.48 -0.82 -1.18 -1.23 t-1.52 -0.41 q-1.3 0 -2.15 0.88 t-0.85 2.22 t0.86 2.22 t2.16 0.88 q1.8 0 2.78 -1.6 l2.54 1 q-1.58 3.24 -5.32 3.24 q-1.62 0 -3 -0.77 z M76.58 16.08 q0 0.7 0.24 1.17 t1.12 0.47 q0.4 0 0.76 -0.04 l0 2.52 q-0.72 0.08 -1.34 0.08 q-1.28 0 -2.07 -0.21 t-1.23 -0.81 t-0.44 -1.72 l0 -6.1 l-1.34 0 l0 -2.62 l1.34 0 l0 -2.94 l2.96 0 l0 2.94 l2.2 0 l0 2.62 l-2.2 0 l0 4.64 z"></path></g>
			</g>
		</svg>
	